<svg width="101" height="101" viewBox="0 0 101 101" fill="none" xmlns="http://www.w3.org/2000/svg">
<rect x="0.440918" y="0.641113" width="100" height="100" rx="13.5022" fill="url(#paint0_linear_173_991)"/>
<rect x="0.440918" y="0.641113" width="100" height="100" rx="13.5022" fill="url(#paint1_linear_173_991)" fill-opacity="0.3"/>
<path d="M37.2169 58.0597C33.1203 58.0597 29.7983 54.7378 29.7983 50.6412C29.7983 46.5446 33.1203 43.2227 37.2169 43.2227H37.7017C40.6407 43.2227 43.0227 40.8406 43.0227 37.9017V37.4168C43.0227 33.3202 46.3447 29.9983 50.4413 29.9983C54.5379 29.9983 57.8598 33.3202 57.8598 37.4168V37.9017C57.8598 40.8406 60.2419 43.2227 63.1808 43.2227H63.6657C67.7623 43.2227 71.0842 46.5446 71.0842 50.6412C71.0842 54.7378 67.7623 58.0597 63.6657 58.0597H63.1808C60.2419 58.0597 57.8598 60.4418 57.8598 63.3808V63.8656C57.8598 67.9622 54.5379 71.2841 50.4413 71.2841C46.3447 71.2841 43.0227 67.9622 43.0227 63.8656V63.3808C43.0227 60.4418 40.6407 58.0597 37.7017 58.0597H37.2169Z" stroke="white" stroke-width="4.11" stroke-miterlimit="10" stroke-linejoin="round"/>
<path d="M80.2092 69.1643C80.2092 69.4888 80.0291 69.7865 79.7416 69.937L50.8457 85.0688C50.5922 85.2015 50.2898 85.2015 50.0364 85.0688L21.1405 69.937C20.853 69.7865 20.6729 69.4888 20.6729 69.1643V32.1178C20.6729 31.7933 20.853 31.4956 21.1405 31.3451L50.0364 16.2134C50.2898 16.0806 50.5922 16.0806 50.8457 16.2134L79.7416 31.3451C80.0291 31.4956 80.2092 31.7933 80.2092 32.1178V69.1643Z" stroke="white" stroke-width="4.11" stroke-miterlimit="10" stroke-linejoin="round"/>
<defs>
<linearGradient id="paint0_linear_173_991" x1="7.62523" y1="20.5326" x2="103.587" y2="53.1638" gradientUnits="userSpaceOnUse">
<stop stop-color="#3F979F"/>
<stop offset="1" stop-color="#3B5865"/>
</linearGradient>
<linearGradient id="paint1_linear_173_991" x1="33.3282" y1="87.7223" x2="109.744" y2="37.8592" gradientUnits="userSpaceOnUse">
<stop stop-color="#161A24"/>
<stop offset="1" stop-color="#3C7B86"/>
</linearGradient>
</defs>
</svg>
