<svg width="184" height="208" viewBox="0 0 184 208" fill="none" xmlns="http://www.w3.org/2000/svg">
<path d="M51.4215 126.869C38.7938 126.869 28.5542 116.63 28.5542 104.002C28.5542 91.3744 38.7938 81.1347 51.4215 81.1347H52.916C61.9752 81.1347 69.3178 73.7921 69.3178 64.7329V63.2384C69.3178 50.6107 79.5575 40.3711 92.1851 40.3711C104.813 40.3711 115.052 50.6107 115.052 63.2384V64.7329C115.052 73.7921 122.395 81.1347 131.454 81.1347H132.949C145.576 81.1347 155.816 91.3744 155.816 104.002C155.816 116.63 145.576 126.869 132.949 126.869H131.454C122.395 126.869 115.052 134.212 115.052 143.271V144.766C115.052 157.393 104.813 167.633 92.1851 167.633C79.5575 167.633 69.3178 157.393 69.3178 144.766V143.271C69.3178 134.212 61.9752 126.869 52.916 126.869H51.4215Z" stroke="#123452" stroke-width="13.3731" stroke-miterlimit="10" stroke-linejoin="round"/>
<path d="M177.311 148.702C177.311 154.714 173.973 160.228 168.648 163.017L99.6816 199.132C94.9865 201.591 89.3841 201.591 84.689 199.132L15.7229 163.017C10.3973 160.228 7.06006 154.714 7.06006 148.702V59.3022C7.06006 53.2906 10.3973 47.7759 15.7229 44.9871L84.689 8.87208C89.3841 6.41341 94.9865 6.4134 99.6816 8.87207L168.648 44.9871C173.973 47.7759 177.311 53.2906 177.311 59.3022V148.702Z" stroke="#3F979F" stroke-width="13.3731" stroke-miterlimit="10" stroke-linejoin="round"/>
</svg>
